<svg width="176" height="69" viewBox="0 0 176 69" fill="none" xmlns="http://www.w3.org/2000/svg">
<path d="M124.972 29.0034C125.037 28.9907 125.097 28.9746 125.161 29C125.4 29.0667 125.705 29.7214 125.705 29.9665C125.648 30.6949 125.138 31.2496 124.43 30.7743C124.185 30.6098 124.43 30.321 124.441 30.0805C124.451 29.84 124.32 29.6443 124.324 29.4073C124.357 29.2911 124.843 29.0287 124.973 29.0034H124.972Z" fill="white"/>
<path d="M124.66 28.8734L124.091 29.1679C123.638 29.2761 123.163 29.1967 122.704 29.2186C122.656 29.1115 122.806 28.8734 122.877 28.8734H124.66Z" fill="white"/>
<path d="M130.845 36.7545H127.911L125.957 33.3001L125.436 33.1873V36.7545H122.675V31.2311C123.228 31.2069 123.793 31.2622 124.348 31.2357C124.532 31.2265 124.661 31.1206 124.69 31.1172C124.823 31.1022 124.439 31.5384 124.804 31.4613L125.049 31.1114C125.785 31.0746 127.239 31.3957 127.389 30.3658C127.648 28.5971 126.455 28.6363 125.049 28.7065L124.804 28.3567L124.747 28.7019H122.676V26.7457H127.797C128 26.7457 128.967 27.1622 129.2 27.298C130.135 27.8411 130.94 29.0195 130.838 30.131C130.715 31.4693 129.775 32.3013 128.661 32.9008L130.845 36.7568V36.7545Z" fill="white"/>
<path d="M124.569 30.9884L123.995 30.7053C123.54 30.6052 123.067 30.6938 122.607 30.6812C122.56 30.7893 122.715 31.0241 122.785 31.0229L124.569 30.9895V30.9884Z" fill="white"/>
<g filter="url(#filter0_d_156_351)">
<path d="M33.965 52.5556C33.1149 53.4768 32.1878 54.3446 31.3062 55.2381C31.2923 55.2519 31.2765 55.2658 31.2587 55.2776L28.6415 57.2109C28.3331 57.4403 28.4833 57.9246 28.8688 57.9404C33.6131 58.1262 48.2038 58.3871 49.125 59.6345C49.4274 60.269 48.1049 60.4153 47.6483 60.5221C44.2917 61.3049 39.2509 61.4373 35.7223 61.5935C27.0541 61.979 17.1286 61.977 8.50982 61.1942C7.7705 61.127 3.68447 60.694 2.33433 60.2038C1.96862 60.0714 1.97257 59.5554 2.34223 59.4368C2.45886 59.3992 2.58143 59.3736 2.6862 59.3399C5.73836 58.3733 11.8407 58.2231 15.2013 58.0708C17.6228 57.9621 20.0602 58.1262 22.4838 57.974C22.889 57.9483 23.0195 57.4244 22.6696 57.2208C22.2841 56.9955 21.8808 56.7859 21.523 56.5151C19.7143 55.1491 16.326 51.7194 15.0293 49.881C14.7209 49.4441 14.3275 48.9954 14.3058 48.432C14.2741 47.7698 14.964 47.1036 15.4029 46.5857C17.1958 44.4725 19.7103 42.5748 21.5982 40.4952C21.6179 40.4735 21.6337 40.4517 21.6495 40.428C22.0666 39.7598 21.7622 38.6726 20.9676 38.4591C20.9102 38.4433 20.847 38.4453 20.7877 38.4591L20.0839 38.6054C20.0068 38.6212 19.9357 38.6588 19.8783 38.7141L13.0821 45.3976C13.0604 45.4194 13.0367 45.4392 13.011 45.455C12.3211 45.8938 11.813 45.4945 11.3663 44.9311C10.9195 44.3677 9.19972 41.8355 8.94471 41.28C8.68971 40.7245 8.51575 40.1137 8.64226 39.5266C8.95262 38.0855 14.2109 34.6103 14.8514 32.7047C14.8711 32.6473 14.8731 32.5841 14.8652 32.5248C14.7051 31.5028 14.1496 30.8445 13.0209 31.2774C12.9714 31.2952 12.926 31.3249 12.8884 31.3605L7.22491 36.595C7.05293 36.7551 6.77815 36.7393 6.62989 36.5594C5.70278 35.4405 4.28542 31.2735 4.04227 30.3562C-1.86635 8.20631 26.9236 -7.11184 42.3129 10.0803C54.4979 23.6945 44.2897 41.3571 33.963 52.5516L33.965 52.5556ZM32.9686 14.3482C31.5256 13.2432 30.0727 13.1048 28.5387 14.1841C26.3444 15.728 22.4877 20.0354 20.4279 22.1387C19.485 23.1034 15.1064 27.4345 14.8711 28.1442C14.454 29.4034 14.6636 30.546 15.4246 31.5838C16.1323 32.5465 21.2186 37.6961 22.0765 38.0598C23.484 38.6548 24.6483 38.5065 25.8522 37.6289C29.9382 34.6479 33.5637 29.0733 37.6872 25.9025C37.705 25.8887 37.7228 25.8729 37.7386 25.8551C39.2766 24.163 40.4211 22.5202 38.8555 20.3161C38.1142 19.2704 34.042 15.1745 32.9647 14.3502L32.9686 14.3482Z" fill="#0ACCFF"/>
<path d="M32.9664 14.3482C34.0437 15.1725 38.1159 19.2684 38.8572 20.3141C40.4208 22.5202 39.2783 24.1609 37.7403 25.8531C37.7245 25.8709 37.7067 25.8867 37.6889 25.9005C33.5634 29.0713 29.9399 34.6458 25.8539 37.6268C24.65 38.5045 23.4837 38.6528 22.0782 38.0578C21.2203 37.6941 16.132 32.5445 15.4263 31.5818C14.6652 30.544 14.4577 29.4014 14.8728 28.1422C15.108 27.4345 19.4846 23.1014 20.4296 22.1367C22.4894 20.0334 26.3461 15.726 28.5403 14.1821C30.0743 13.1028 31.5273 13.2412 32.9703 14.3462L32.9664 14.3482ZM25.2826 21.5891C25.7985 20.9704 26.4311 20.322 26.3224 19.5689C26.2749 19.2466 25.8657 19.1241 25.6305 19.3514L19.9018 24.8904C19.8681 24.922 19.8405 24.9616 19.8187 25.0031L19.7219 25.1988C19.5894 25.4676 19.7871 25.7839 20.0895 25.7799C20.4829 25.776 20.815 25.7088 21.2559 25.4933C21.6137 25.3194 24.8615 22.0913 25.2806 21.5872L25.2826 21.5891ZM33.7591 25.262C33.9567 25.2007 34.0734 24.9971 34.0299 24.7975C33.9725 24.5405 33.8085 24.329 33.6464 24.0997C33.2154 23.4948 29.3113 19.6084 28.7301 19.219C28.5482 19.0984 28.4138 19.0035 28.2616 18.9541C28.0086 18.8711 27.7476 19.0608 27.7338 19.3237C27.718 19.6203 27.6883 19.9267 27.7437 20.1935C27.8821 20.8399 31.2723 24.2697 31.9641 24.7876C32.5947 25.2581 33.0514 25.4775 33.761 25.26L33.7591 25.262ZM33.7531 27.4385C33.931 27.1894 33.7768 26.8435 33.4704 26.8019C33.0257 26.7407 32.7212 26.8276 32.1994 27.1518C31.6478 27.4958 27.6725 31.5779 27.4847 32.0365C27.3681 32.3231 27.3305 32.6038 27.3246 32.8885C27.3167 33.2245 27.7002 33.4281 27.975 33.2305C28.2715 33.017 28.5739 32.7639 28.6471 32.6967C30.0071 31.4395 32.4129 29.0891 33.5515 27.7073C33.5891 27.6618 33.6681 27.5571 33.7531 27.4404V27.4385ZM22.0881 28.2114C21.1017 27.3871 20.6707 26.6932 19.37 27.3554C19.1822 27.4503 19.1051 27.6757 19.1862 27.8674C19.2573 28.0355 19.3403 28.2114 19.3739 28.2667C19.8464 29.0041 23.7703 32.841 24.5729 33.4519C24.739 33.5784 24.8931 33.7168 25.0711 33.8156C25.2786 33.9283 25.5455 33.8294 25.6344 33.612C26.4093 31.736 23.4066 29.3184 22.0861 28.2134L22.0881 28.2114Z" fill="white"/>
<path d="M22.0896 28.2115C23.4101 29.3166 26.4128 31.7362 25.6379 33.6102C25.549 33.8276 25.2821 33.9264 25.0746 33.8138C24.8966 33.7169 24.7425 33.5765 24.5764 33.45C23.7719 32.8412 19.8479 29.0042 19.3774 28.2649C19.3419 28.2096 19.2608 28.0336 19.1897 27.8656C19.1086 27.6738 19.1877 27.4485 19.3735 27.3536C20.6742 26.6914 21.1052 27.3852 22.0916 28.2096L22.0896 28.2115Z" fill="#0ACCFF"/>
<path d="M34.0308 24.7985C34.0743 24.9981 33.9577 25.2017 33.76 25.263C33.0503 25.4805 32.5937 25.261 31.9631 24.7906C31.2712 24.2746 27.8791 20.8429 27.7427 20.1965C27.6853 19.9296 27.717 19.6232 27.7328 19.3267C27.7466 19.0638 28.0075 18.872 28.2606 18.957C28.4128 19.0065 28.5472 19.1014 28.7291 19.2219C29.3122 19.6114 33.2144 23.4977 33.6454 24.1026C33.8074 24.3319 33.9735 24.5435 34.0288 24.8004L34.0308 24.7985Z" fill="#0ACCFF"/>
<path d="M25.2852 21.5885C24.8661 22.0926 21.6182 25.3207 21.2604 25.4947C20.8196 25.7101 20.4875 25.7754 20.0941 25.7813C19.7917 25.7853 19.594 25.467 19.7265 25.2001L19.8233 25.0044C19.8431 24.9629 19.8708 24.9254 19.9063 24.8918L25.6351 19.3528C25.8703 19.1255 26.2795 19.248 26.327 19.5702C26.4377 20.3234 25.8031 20.9718 25.2872 21.5905L25.2852 21.5885Z" fill="#0ACCFF"/>
<path d="M33.4721 26.8026C33.7785 26.8442 33.9327 27.1901 33.7548 27.4392C33.6698 27.5558 33.5907 27.6606 33.5532 27.706C32.4146 29.0878 30.0088 31.4382 28.6488 32.6955C28.5756 32.7627 28.2732 33.0157 27.9767 33.2292C27.7019 33.4269 27.3184 33.2233 27.3263 32.8872C27.3342 32.6025 27.3698 32.3218 27.4864 32.0352C27.6742 31.5766 31.6495 27.4945 32.2011 27.1506C32.7229 26.8264 33.0274 26.7414 33.4721 26.8007V26.8026Z" fill="#0ACCFF"/>
<path d="M61.2827 3.36487H57.918V60.5661H61.2827V3.36487Z" fill="white"/>
<path d="M79.1148 5.38809V8.02608H76.297V16H72.9695V8.02608H70.1816V5.38809H79.1148ZM85.9378 7.48649C86.907 7.48649 87.6615 7.81124 88.201 8.46075C88.7506 9.11025 89.0254 9.98958 89.0254 11.0987V16H85.7129V11.5184C85.7129 11.1187 85.603 10.804 85.3832 10.5741C85.1734 10.3343 84.8886 10.2144 84.5288 10.2144C84.1591 10.2144 83.8694 10.3343 83.6595 10.5741C83.4497 10.804 83.3448 11.1187 83.3448 11.5184V16H80.0173V4.90846H83.3448V8.83546C83.6046 8.43577 83.9493 8.11101 84.379 7.8612C84.8186 7.6114 85.3382 7.48649 85.9378 7.48649ZM98.6521 11.6983C98.6521 11.9281 98.6371 12.1479 98.6071 12.3578H93.2562C93.3061 13.0872 93.6109 13.4519 94.1705 13.4519C94.5302 13.4519 94.79 13.2871 94.9499 12.9573H98.4722C98.3523 13.5569 98.0975 14.0965 97.7078 14.5761C97.3281 15.0457 96.8434 15.4204 96.2539 15.7002C95.6743 15.97 95.0348 16.1049 94.3354 16.1049C93.496 16.1049 92.7466 15.9301 92.0871 15.5803C91.4376 15.2306 90.928 14.731 90.5582 14.0815C90.1985 13.422 90.0186 12.6526 90.0186 11.7732C90.0186 10.8939 90.1985 10.1295 90.5582 9.47997C90.928 8.82047 91.4376 8.31586 92.0871 7.96613C92.7466 7.61639 93.496 7.44152 94.3354 7.44152C95.1747 7.44152 95.9191 7.61639 96.5687 7.96613C97.2282 8.30587 97.7378 8.79549 98.0975 9.43501C98.4672 10.0745 98.6521 10.8289 98.6521 11.6983ZM95.2796 10.9039C95.2796 10.6241 95.1897 10.4143 95.0098 10.2744C94.83 10.1245 94.6052 10.0495 94.3354 10.0495C93.7458 10.0495 93.4011 10.3343 93.3011 10.9039H95.2796Z" fill="white"/>
<path d="M80.9582 57.2043H77.6307L74.1084 51.8684V57.2043H70.7809V46.5924H74.1084L77.6307 52.0182V46.5924H80.9582V57.2043ZM90.6452 52.9026C90.6452 53.1324 90.6302 53.3522 90.6003 53.5621H85.2493C85.2993 54.2915 85.6041 54.6562 86.1636 54.6562C86.5234 54.6562 86.7832 54.4914 86.9431 54.1616H90.4654C90.3455 54.7611 90.0907 55.3007 89.701 55.7804C89.3212 56.25 88.8366 56.6247 88.2471 56.9045C87.6675 57.1743 87.028 57.3092 86.3285 57.3092C85.4892 57.3092 84.7397 57.1343 84.0802 56.7846C83.4307 56.4349 82.9211 55.9353 82.5514 55.2857C82.1917 54.6263 82.0118 53.8568 82.0118 52.9775C82.0118 52.0982 82.1917 51.3338 82.5514 50.6843C82.9211 50.0248 83.4307 49.5201 84.0802 49.1704C84.7397 48.8207 85.4892 48.6458 86.3285 48.6458C87.1679 48.6458 87.9123 48.8207 88.5618 49.1704C89.2213 49.5102 89.7309 49.9998 90.0907 50.6393C90.4604 51.2788 90.6452 52.0332 90.6452 52.9026ZM87.2728 52.1082C87.2728 51.8284 87.1829 51.6185 87.003 51.4786C86.8231 51.3288 86.5983 51.2538 86.3285 51.2538C85.739 51.2538 85.3942 51.5386 85.2943 52.1082H87.2728ZM96.9586 54.3714V57.2043H95.6995C93.3813 57.2043 92.2222 56.0502 92.2222 53.7419V51.5236H91.173V48.7507H92.2222V46.7123H95.5497V48.7507H96.9286V51.5236H95.5497V53.8019C95.5497 54.0017 95.5946 54.1466 95.6846 54.2365C95.7845 54.3265 95.9444 54.3714 96.1642 54.3714H96.9586ZM111.056 48.7507L109.048 57.2043H105.3L104.281 52.4379L103.202 57.2043H99.4549L97.4614 48.7507H100.759L101.463 53.8918L102.558 48.7507H106.11L107.264 53.9518L107.983 48.7507H111.056ZM115.782 57.3092C114.933 57.3092 114.168 57.1343 113.489 56.7846C112.81 56.4349 112.275 55.9353 111.885 55.2857C111.505 54.6263 111.316 53.8568 111.316 52.9775C111.316 52.0982 111.505 51.3338 111.885 50.6843C112.275 50.0248 112.81 49.5201 113.489 49.1704C114.168 48.8207 114.933 48.6458 115.782 48.6458C116.632 48.6458 117.396 48.8207 118.075 49.1704C118.755 49.5201 119.285 50.0248 119.664 50.6843C120.054 51.3338 120.249 52.0982 120.249 52.9775C120.249 53.8568 120.054 54.6263 119.664 55.2857C119.285 55.9353 118.755 56.4349 118.075 56.7846C117.396 57.1343 116.632 57.3092 115.782 57.3092ZM115.782 54.4314C116.092 54.4314 116.352 54.3115 116.562 54.0717C116.771 53.8219 116.876 53.4571 116.876 52.9775C116.876 52.4979 116.771 52.1381 116.562 51.8983C116.352 51.6485 116.092 51.5236 115.782 51.5236C115.472 51.5236 115.213 51.6485 115.003 51.8983C114.793 52.1381 114.688 52.4979 114.688 52.9775C114.688 53.4571 114.788 53.8219 114.988 54.0717C115.198 54.3115 115.462 54.4314 115.782 54.4314ZM124.622 50.3095C124.961 49.8199 125.376 49.4302 125.866 49.1404C126.355 48.8407 126.865 48.6908 127.395 48.6908V52.2431H126.45C125.821 52.2431 125.356 52.353 125.056 52.5728C124.767 52.7926 124.622 53.1824 124.622 53.7419V57.2043H121.294V48.7507H124.622V50.3095ZM133.702 57.2043L131.618 53.8319V57.2043H128.291V46.1127H131.618V51.9133L133.732 48.7507H137.599L134.436 53.0075L137.674 57.2043H133.702Z" fill="white"/>
<path d="M74.933 36.7072C73.664 36.7072 72.6148 36.4124 71.7854 35.8229C70.966 35.2233 70.5214 34.349 70.4514 33.1999H73.9887C74.0387 33.8094 74.3085 34.1142 74.7981 34.1142C74.978 34.1142 75.1279 34.0742 75.2478 33.9943C75.3777 33.9044 75.4426 33.7695 75.4426 33.5896C75.4426 33.3398 75.3077 33.1399 75.0379 32.99C74.7681 32.8302 74.3484 32.6503 73.7789 32.4505C73.0994 32.2106 72.5348 31.9758 72.0852 31.746C71.6455 31.5162 71.2658 31.1814 70.946 30.7418C70.6263 30.3021 70.4714 29.7375 70.4814 29.0481C70.4814 28.3586 70.6563 27.774 71.006 27.2944C71.3657 26.8048 71.8504 26.435 72.4599 26.1852C73.0794 25.9354 73.7739 25.8105 74.5433 25.8105C75.8423 25.8105 76.8715 26.1103 77.6309 26.7098C78.4004 27.3094 78.805 28.1537 78.845 29.2429H75.2628C75.2528 28.9431 75.1778 28.7283 75.0379 28.5984C74.898 28.4685 74.7282 28.4035 74.5283 28.4035C74.3884 28.4035 74.2735 28.4535 74.1836 28.5534C74.0936 28.6434 74.0487 28.7733 74.0487 28.9431C74.0487 29.183 74.1786 29.3828 74.4384 29.5427C74.7082 29.6926 75.1328 29.8774 75.7124 30.0973C76.3819 30.3471 76.9315 30.5869 77.3612 30.8167C77.8008 31.0465 78.1805 31.3663 78.5003 31.776C78.82 32.1857 78.9799 32.7003 78.9799 33.3198C78.9799 33.9693 78.82 34.5539 78.5003 35.0735C78.1805 35.5831 77.7159 35.9828 77.1063 36.2725C76.4968 36.5623 75.7724 36.7072 74.933 36.7072ZM91.4354 28.0888C92.5146 28.0888 93.349 28.4135 93.9385 29.063C94.5381 29.7125 94.8378 30.5919 94.8378 31.701V36.6023H91.5254V32.1207C91.5254 31.761 91.4154 31.4812 91.1956 31.2814C90.9858 31.0715 90.701 30.9666 90.3413 30.9666C89.9715 30.9666 89.6818 31.0715 89.4719 31.2814C89.2621 31.4812 89.1572 31.761 89.1572 32.1207V36.6023H85.8447V32.1207C85.8447 31.761 85.7348 31.4812 85.5149 31.2814C85.3051 31.0715 85.0203 30.9666 84.6606 30.9666C84.2909 30.9666 84.0011 31.0715 83.7912 31.2814C83.5814 31.4812 83.4765 31.761 83.4765 32.1207V36.6023H80.149V28.1487H83.4765V29.2879C83.7163 28.9281 84.0411 28.6384 84.4507 28.4185C84.8704 28.1987 85.3601 28.0888 85.9196 28.0888C86.5292 28.0888 87.0687 28.2237 87.5384 28.4935C88.008 28.7533 88.3827 29.123 88.6625 29.6026C88.9723 29.163 89.367 28.8032 89.8466 28.5235C90.3263 28.2337 90.8559 28.0888 91.4354 28.0888ZM95.8296 32.3755C95.8296 31.4862 95.9795 30.7168 96.2793 30.0673C96.5891 29.4078 97.0087 28.9082 97.5383 28.5684C98.0679 28.2187 98.6625 28.0438 99.322 28.0438C99.8716 28.0438 100.346 28.1587 100.746 28.3886C101.146 28.6084 101.45 28.9132 101.66 29.3029V28.1487H104.973V36.6023H101.66V35.4482C101.45 35.8379 101.146 36.1476 100.746 36.3775C100.346 36.5973 99.8716 36.7072 99.322 36.7072C98.6625 36.7072 98.0679 36.5373 97.5383 36.1976C97.0087 35.8479 96.5891 35.3483 96.2793 34.6987C95.9795 34.0392 95.8296 33.2648 95.8296 32.3755ZM101.66 32.3755C101.66 31.9259 101.545 31.5761 101.315 31.3263C101.086 31.0765 100.791 30.9516 100.431 30.9516C100.071 30.9516 99.7766 31.0765 99.5468 31.3263C99.317 31.5761 99.2021 31.9259 99.2021 32.3755C99.2021 32.8252 99.317 33.1749 99.5468 33.4247C99.7766 33.6745 100.071 33.7994 100.431 33.7994C100.791 33.7994 101.086 33.6745 101.315 33.4247C101.545 33.1749 101.66 32.8252 101.66 32.3755ZM109.794 29.7076C110.134 29.2179 110.549 28.8282 111.038 28.5384C111.528 28.2387 112.038 28.0888 112.567 28.0888V31.6411H111.623C110.993 31.6411 110.529 31.751 110.229 31.9708C109.939 32.1907 109.794 32.5804 109.794 33.1399V36.6023H106.467V28.1487H109.794V29.7076ZM118.724 33.7695V36.6023H117.465C115.147 36.6023 113.988 35.4482 113.988 33.1399V30.9216H112.939V28.1487H113.988V26.1103H117.316V28.1487H118.694V30.9216H117.316V33.1999C117.316 33.3997 117.36 33.5446 117.45 33.6346C117.55 33.7245 117.71 33.7695 117.93 33.7695H118.724Z" fill="white"/>
<path d="M140.809 32.2565C140.809 32.4863 140.794 32.7062 140.764 32.916H135.413C135.463 33.6454 135.768 34.0102 136.328 34.0102C136.687 34.0102 136.947 33.8453 137.107 33.5155H140.629C140.509 34.1151 140.255 34.6547 139.865 35.1343C139.485 35.604 139.001 35.9787 138.411 36.2585C137.831 36.5283 137.192 36.6631 136.492 36.6631C135.653 36.6631 134.904 36.4883 134.244 36.1385C133.595 35.7888 133.085 35.2892 132.715 34.6397C132.356 33.9802 132.176 33.2108 132.176 32.3315C132.176 31.4521 132.356 30.6877 132.715 30.0382C133.085 29.3787 133.595 28.8741 134.244 28.5244C134.904 28.1746 135.653 27.9998 136.492 27.9998C137.332 27.9998 138.076 28.1746 138.726 28.5244C139.385 28.8641 139.895 29.3537 140.255 29.9932C140.624 30.6327 140.809 31.3872 140.809 32.2565ZM137.437 31.4621C137.437 31.1823 137.347 30.9725 137.167 30.8326C136.987 30.6827 136.762 30.6078 136.492 30.6078C135.903 30.6078 135.558 30.8925 135.458 31.4621H137.437ZM145.189 29.2588C145.399 28.8691 145.699 28.5643 146.088 28.3445C146.488 28.1147 146.963 27.9998 147.512 27.9998C148.172 27.9998 148.766 28.1746 149.296 28.5244C149.825 28.8641 150.24 29.3637 150.54 30.0232C150.85 30.6727 151.005 31.4421 151.005 32.3315C151.005 33.2208 150.85 33.9952 150.54 34.6547C150.24 35.3042 149.825 35.8038 149.296 36.1535C148.766 36.4933 148.172 36.6631 147.512 36.6631C146.963 36.6631 146.488 36.5532 146.088 36.3334C145.699 36.1036 145.399 35.7938 145.189 35.4041V40.6051H141.862V28.1047H145.189V29.2588ZM147.632 32.3315C147.632 31.8818 147.517 31.5321 147.287 31.2822C147.058 31.0324 146.763 30.9075 146.403 30.9075C146.043 30.9075 145.749 31.0324 145.519 31.2822C145.289 31.5321 145.174 31.8818 145.174 32.3315C145.174 32.7811 145.289 33.1308 145.519 33.3807C145.749 33.6305 146.043 33.7554 146.403 33.7554C146.763 33.7554 147.058 33.6305 147.287 33.3807C147.517 33.1308 147.632 32.7811 147.632 32.3315ZM151.599 32.3315C151.599 31.4421 151.749 30.6727 152.049 30.0232C152.359 29.3637 152.779 28.8641 153.308 28.5244C153.838 28.1746 154.432 27.9998 155.092 27.9998C155.641 27.9998 156.116 28.1147 156.516 28.3445C156.915 28.5643 157.22 28.8691 157.43 29.2588V28.1047H160.742V36.5582H157.43V35.4041C157.22 35.7938 156.915 36.1036 156.516 36.3334C156.116 36.5532 155.641 36.6631 155.092 36.6631C154.432 36.6631 153.838 36.4933 153.308 36.1535C152.779 35.8038 152.359 35.3042 152.049 34.6547C151.749 33.9952 151.599 33.2208 151.599 32.3315ZM157.43 32.3315C157.43 31.8818 157.315 31.5321 157.085 31.2822C156.855 31.0324 156.561 30.9075 156.201 30.9075C155.841 30.9075 155.546 31.0324 155.317 31.2822C155.087 31.5321 154.972 31.8818 154.972 32.3315C154.972 32.7811 155.087 33.1308 155.317 33.3807C155.546 33.6305 155.841 33.7554 156.201 33.7554C156.561 33.7554 156.855 33.6305 157.085 33.3807C157.315 33.1308 157.43 32.7811 157.43 32.3315ZM163.915 27.4302C163.336 27.4302 162.871 27.2753 162.521 26.9655C162.172 26.6558 161.997 26.2661 161.997 25.7964C161.997 25.3168 162.172 24.9221 162.521 24.6123C162.871 24.2926 163.336 24.1327 163.915 24.1327C164.485 24.1327 164.945 24.2926 165.294 24.6123C165.644 24.9221 165.819 25.3168 165.819 25.7964C165.819 26.2661 165.644 26.6558 165.294 26.9655C164.945 27.2753 164.485 27.4302 163.915 27.4302ZM165.564 28.1047V36.5582H162.237V28.1047H165.564ZM170.394 29.6635C170.734 29.1739 171.149 28.7842 171.638 28.4944C172.128 28.1946 172.638 28.0447 173.167 28.0447V31.597H172.223C171.593 31.597 171.129 31.7069 170.829 31.9268C170.539 32.1466 170.394 32.5363 170.394 33.0959V36.5582H167.067V28.1047H170.394V29.6635Z" fill="white"/>
</g>
<defs>
<filter id="filter0_d_156_351" x="8.10623e-05" y="2.69183" width="175.23" height="65.3405" filterUnits="userSpaceOnUse" color-interpolation-filters="sRGB">
<feFlood flood-opacity="0" result="BackgroundImageFix"/>
<feColorMatrix in="SourceAlpha" type="matrix" values="0 0 0 0 0 0 0 0 0 0 0 0 0 0 0 0 0 0 127 0" result="hardAlpha"/>
<feOffset dy="4.12484"/>
<feGaussianBlur stdDeviation="1.03121"/>
<feComposite in2="hardAlpha" operator="out"/>
<feColorMatrix type="matrix" values="0 0 0 0 0 0 0 0 0 0 0 0 0 0 0 0 0 0 0.25 0"/>
<feBlend mode="normal" in2="BackgroundImageFix" result="effect1_dropShadow_156_351"/>
<feBlend mode="normal" in="SourceGraphic" in2="effect1_dropShadow_156_351" result="shape"/>
</filter>
</defs>
</svg>
